<svg id="hightech" width="96" height="14" viewBox="0 0 96 14" fill="none" xmlns="http://www.w3.org/2000/svg">
<path d="M9.37267 1.2V11H7.55267V6.8H2.48467V11H0.664671V1.2H2.48467V5.246H7.55267V1.2H9.37267ZM12.1107 3.524H13.8607V11H12.1107V3.524ZM12.9927 2.292C12.6753 2.292 12.4093 2.194 12.1947 1.998C11.98 1.79267 11.8727 1.54067 11.8727 1.242C11.8727 0.943333 11.98 0.695999 12.1947 0.499999C12.4093 0.294666 12.6753 0.192 12.9927 0.192C13.31 0.192 13.576 0.29 13.7907 0.485999C14.0053 0.672666 14.1127 0.910666 14.1127 1.2C14.1127 1.508 14.0053 1.76933 13.7907 1.984C13.5853 2.18933 13.3193 2.292 12.9927 2.292ZM23.8575 3.524V9.866C23.8575 12.498 22.5135 13.814 19.8255 13.814C19.1069 13.814 18.4255 13.7207 17.7815 13.534C17.1375 13.3567 16.6055 13.0953 16.1855 12.75L16.9695 11.434C17.2962 11.7047 17.7069 11.9193 18.2015 12.078C18.7055 12.246 19.2142 12.33 19.7275 12.33C20.5489 12.33 21.1509 12.1433 21.5335 11.77C21.9162 11.3967 22.1075 10.8273 22.1075 10.062V9.67C21.8089 9.99667 21.4449 10.244 21.0155 10.412C20.5862 10.58 20.1149 10.664 19.6015 10.664C18.8922 10.664 18.2482 10.5147 17.6695 10.216C17.1002 9.908 16.6475 9.47867 16.3115 8.928C15.9849 8.37733 15.8215 7.74733 15.8215 7.038C15.8215 6.32867 15.9849 5.70333 16.3115 5.162C16.6475 4.61133 17.1002 4.18667 17.6695 3.888C18.2482 3.58933 18.8922 3.44 19.6015 3.44C20.1429 3.44 20.6329 3.52867 21.0715 3.706C21.5195 3.88333 21.8929 4.154 22.1915 4.518V3.524H23.8575ZM19.8675 9.18C20.5302 9.18 21.0715 8.984 21.4915 8.592C21.9209 8.19067 22.1355 7.67267 22.1355 7.038C22.1355 6.41267 21.9209 5.904 21.4915 5.512C21.0715 5.12 20.5302 4.924 19.8675 4.924C19.1955 4.924 18.6449 5.12 18.2155 5.512C17.7955 5.904 17.5855 6.41267 17.5855 7.038C17.5855 7.67267 17.7955 8.19067 18.2155 8.592C18.6449 8.984 19.1955 9.18 19.8675 9.18ZM30.6802 3.44C31.6229 3.44 32.3789 3.71533 32.9482 4.266C33.5176 4.81667 33.8022 5.63333 33.8022 6.716V11H32.0522V6.94C32.0522 6.28667 31.8982 5.79667 31.5902 5.47C31.2822 5.134 30.8436 4.966 30.2742 4.966C29.6302 4.966 29.1216 5.162 28.7482 5.554C28.3749 5.93667 28.1882 6.492 28.1882 7.22V11H26.4382V0.611999H28.1882V4.392C28.4776 4.084 28.8322 3.85067 29.2522 3.692C29.6816 3.524 30.1576 3.44 30.6802 3.44ZM35.9242 6.38H39.7742V7.836H35.9242V6.38ZM46.5997 10.594C46.3943 10.762 46.1423 10.888 45.8437 10.972C45.5543 11.056 45.2463 11.098 44.9197 11.098C44.0983 11.098 43.4637 10.8833 43.0157 10.454C42.5677 10.0247 42.3437 9.39933 42.3437 8.578V4.98H41.1117V3.58H42.3437V1.872H44.0937V3.58H46.0957V4.98H44.0937V8.536C44.0937 8.9 44.1823 9.18 44.3597 9.376C44.537 9.56267 44.7937 9.656 45.1297 9.656C45.5217 9.656 45.8483 9.55333 46.1097 9.348L46.5997 10.594ZM55.1012 7.304C55.1012 7.42533 55.0918 7.598 55.0732 7.822H49.2072C49.3098 8.37267 49.5758 8.81133 50.0052 9.138C50.4438 9.45533 50.9852 9.614 51.6292 9.614C52.4505 9.614 53.1272 9.34333 53.6592 8.802L54.5972 9.88C54.2612 10.2813 53.8365 10.5847 53.3232 10.79C52.8098 10.9953 52.2312 11.098 51.5872 11.098C50.7658 11.098 50.0425 10.9347 49.4172 10.608C48.7918 10.2813 48.3065 9.82867 47.9612 9.25C47.6252 8.662 47.4572 7.99933 47.4572 7.262C47.4572 6.534 47.6205 5.88067 47.9472 5.302C48.2832 4.714 48.7452 4.25667 49.3332 3.93C49.9212 3.60333 50.5838 3.44 51.3212 3.44C52.0492 3.44 52.6978 3.60333 53.2672 3.93C53.8458 4.24733 54.2938 4.7 54.6112 5.288C54.9378 5.86667 55.1012 6.53867 55.1012 7.304ZM51.3212 4.84C50.7612 4.84 50.2852 5.008 49.8932 5.344C49.5105 5.67067 49.2772 6.10933 49.1932 6.66H53.4352C53.3605 6.11867 53.1318 5.68 52.7492 5.344C52.3665 5.008 51.8905 4.84 51.3212 4.84ZM60.4921 11.098C59.7175 11.098 59.0221 10.9347 58.4061 10.608C57.7901 10.2813 57.3095 9.82867 56.9641 9.25C56.6188 8.662 56.4461 7.99933 56.4461 7.262C56.4461 6.52467 56.6188 5.86667 56.9641 5.288C57.3095 4.70933 57.7855 4.25667 58.3921 3.93C59.0081 3.60333 59.7081 3.44 60.4921 3.44C61.2295 3.44 61.8735 3.58933 62.4241 3.888C62.9841 4.18667 63.4041 4.616 63.6841 5.176L62.3401 5.96C62.1255 5.61467 61.8548 5.358 61.5281 5.19C61.2108 5.01267 60.8608 4.924 60.4781 4.924C59.8248 4.924 59.2835 5.13867 58.8541 5.568C58.4248 5.988 58.2101 6.55267 58.2101 7.262C58.2101 7.97133 58.4201 8.54067 58.8401 8.97C59.2695 9.39 59.8155 9.6 60.4781 9.6C60.8608 9.6 61.2108 9.516 61.5281 9.348C61.8548 9.17067 62.1255 8.90933 62.3401 8.564L63.6841 9.348C63.3948 9.908 62.9701 10.342 62.4101 10.65C61.8595 10.9487 61.2201 11.098 60.4921 11.098ZM69.6505 3.44C70.5932 3.44 71.3492 3.71533 71.9185 4.266C72.4879 4.81667 72.7725 5.63333 72.7725 6.716V11H71.0225V6.94C71.0225 6.28667 70.8685 5.79667 70.5605 5.47C70.2525 5.134 69.8139 4.966 69.2445 4.966C68.6005 4.966 68.0919 5.162 67.7185 5.554C67.3452 5.93667 67.1585 6.492 67.1585 7.22V11H65.4085V0.611999H67.1585V4.392C67.4479 4.084 67.8025 3.85067 68.2225 3.692C68.6519 3.524 69.1279 3.44 69.6505 3.44ZM75.8325 11.098C75.5152 11.098 75.2445 10.9907 75.0205 10.776C74.7965 10.552 74.6845 10.272 74.6845 9.936C74.6845 9.59067 74.7919 9.31067 75.0065 9.096C75.2305 8.88133 75.5059 8.774 75.8325 8.774C76.1592 8.774 76.4299 8.88133 76.6445 9.096C76.8685 9.31067 76.9805 9.59067 76.9805 9.936C76.9805 10.272 76.8685 10.552 76.6445 10.776C76.4205 10.9907 76.1499 11.098 75.8325 11.098ZM83.1145 3.44C83.8425 3.44 84.4912 3.59867 85.0605 3.916C85.6392 4.23333 86.0918 4.68133 86.4185 5.26C86.7452 5.83867 86.9085 6.506 86.9085 7.262C86.9085 8.018 86.7452 8.69 86.4185 9.278C86.0918 9.85667 85.6392 10.3047 85.0605 10.622C84.4912 10.9393 83.8425 11.098 83.1145 11.098C82.6012 11.098 82.1298 11.0093 81.7005 10.832C81.2805 10.6547 80.9258 10.3887 80.6365 10.034V11H78.9705V0.611999H80.7205V4.434C81.0192 4.10733 81.3692 3.86 81.7705 3.692C82.1812 3.524 82.6292 3.44 83.1145 3.44ZM82.9185 9.6C83.5625 9.6 84.0898 9.38533 84.5005 8.956C84.9205 8.52667 85.1305 7.962 85.1305 7.262C85.1305 6.562 84.9205 5.99733 84.5005 5.568C84.0898 5.13867 83.5625 4.924 82.9185 4.924C82.4985 4.924 82.1205 5.022 81.7845 5.218C81.4485 5.40467 81.1825 5.67533 80.9865 6.03C80.7905 6.38467 80.6925 6.79533 80.6925 7.262C80.6925 7.72867 80.7905 8.13933 80.9865 8.494C81.1825 8.84867 81.4485 9.124 81.7845 9.32C82.1205 9.50667 82.4985 9.6 82.9185 9.6ZM95.6431 3.524L92.1431 11.602C91.8164 12.414 91.4197 12.9833 90.9531 13.31C90.4864 13.646 89.9217 13.814 89.2591 13.814C88.8857 13.814 88.5171 13.7533 88.1531 13.632C87.7891 13.5107 87.4904 13.3427 87.2571 13.128L87.9571 11.84C88.1251 11.9987 88.3211 12.1247 88.5451 12.218C88.7784 12.3113 89.0117 12.358 89.2451 12.358C89.5531 12.358 89.8051 12.2787 90.0011 12.12C90.2064 11.9613 90.3931 11.6953 90.5611 11.322L90.6871 11.028L87.4251 3.524H89.2451L91.5971 9.054L93.9631 3.524H95.6431Z" fill="white"/>
</svg>
