<svg width="80" height="69" fill="none" xmlns="http://www.w3.org/2000/svg"><g filter="url(#filter0_i)"><path fill-rule="evenodd" clip-rule="evenodd" d="M13.643.034c-5.197.052-5.45.062-6.09.243-2.165.612-3.987 2.082-5.3 4.276C.808 6.97-.002 10.453 0 14.25c0 1.129.102 1.497.584 2.119.52.67.847.72 5.352.806 2.117.04 3.866.09 3.887.11.02.02.047 6.116.06 13.546.011 7.43.047 17.644.079 22.696.055 8.834.064 9.208.235 9.797.285.978.493 1.443.988 2.201.8 1.228 2.136 2.322 3.54 2.9 1.143.472 1.105.47 8.164.537 8.404.08 33.2.025 34.894-.078 1.36-.082 2.119-.257 2.978-.683 1.9-.944 3.385-2.695 3.959-4.668.276-.95.343-3.238.348-11.887l.005-7.392-2.5 2.46-2.498 2.458-.073 6.551c-.042 3.793-.11 6.694-.161 6.89-.102.392-.511.927-.825 1.078-.65.316-1.778.333-21.547.333-19.53 0-20.588-.016-21.451-.313-.2-.068-.403-.26-.642-.606l-.35-.507-.047-16.389c-.027-9.014-.068-17.314-.091-18.444a662.22 662.22 0 01-.06-7.83c-.021-7.826-.093-10.596-.29-11.328-.24-.88-.877-2.016-1.445-2.57-.54-.527-.906-.732-1.584-.888-.388-.09-.137-.11 2-.157 4.18-.094 30.73-.144 35.784-.068l4.8.072.756.241c1.85.591 2.96 1.432 4.053 3.07.588.88.886 1.741 1.012 2.925.06.561.106 3.34.117 7.15.01 3.428.039 6.233.064 6.233s1.16-1.097 2.523-2.44l2.479-2.44-.016-2.086c-.032-4.007-.17-7.092-.356-7.948-.478-2.192-1.678-4.373-3.288-5.975-1.652-1.646-3.528-2.722-5.91-3.392L54.45.031 36.758.006c-9.73-.014-20.132-.001-23.115.028zm58.053 17.392c-.716.245-1.492.83-2.907 2.188l-1.326 1.273 4.428 4.363 4.428 4.363 1.346-1.358c2.028-2.047 2.401-2.706 2.326-4.113-.063-1.182-.266-1.469-2.826-4-1.199-1.185-2.34-2.256-2.535-2.38-.751-.474-2.085-.628-2.934-.336zm-42.474 2.41c-.41.151-.914.55-2.066 1.632-1.723 1.62-2.101 1.967-2.167 1.99-.036.013-.318-.175-.627-.418-.863-.682-1.192-.825-1.918-.827-.534-.003-.691.035-1.111.268-1.197.665-1.643 2.052-1.02 3.172.47.843 2.353 2.739 3.394 3.418.552.36 1.246.505 1.73.362a3.44 3.44 0 00.698-.313c.87-.541 5.225-4.782 5.827-5.675.298-.442.35-.594.38-1.095.041-.737-.084-1.194-.463-1.682-.588-.758-1.812-1.142-2.657-.832zm8.202 2.408c-.845.061-1.131.182-1.613.68-.5.519-.728 1.034-.728 1.648.001.984.57 1.826 1.53 2.262.406.184.497.187 6.634.214 7.04.03 9.882-.046 10.334-.277.445-.227.904-.66 1.117-1.054.278-.514.277-1.69-.002-2.206-.244-.452-.923-1.048-1.347-1.182-.353-.112-14.515-.188-15.925-.085zm22.155 6.461c-3.321 3.26-7.91 7.797-10.197 10.082l-4.16 4.155-.697 1.417c-.384.78-.874 1.804-1.09 2.275a672.2 672.2 0 01-1.121 2.431 120.37 120.37 0 00-1.837 4.112c-.526 1.23-.54 1.373-.215 2.1.37.827 1.007 1.268 1.83 1.268.368 0 .763-.099 1.537-.385 1.524-.562 5.799-2.467 8.775-3.91l1.334-.647 2.308-2.187c1.27-1.203 5.95-5.759 10.401-10.123l8.094-7.936-4.365-4.29c-2.4-2.358-4.409-4.288-4.462-4.288-.053 0-2.814 2.666-6.135 5.926zM29.17 32.18c-.416.185-.983.663-2.679 2.255-.807.758-1.501 1.377-1.542 1.378-.041 0-.281-.179-.534-.397-1.038-.898-2.023-1.103-3.01-.626-.859.414-1.339 1.182-1.351 2.16-.006.468.037.647.245 1.017.543.968 2.586 2.981 3.611 3.56.267.15.629.265.928.295.952.097 1.703-.463 4.905-3.658 2.22-2.214 2.547-2.65 2.6-3.457.068-1.05-.368-1.88-1.228-2.34-.58-.311-1.474-.397-1.945-.187zm8.433 2.403c-1.04.06-1.285.152-1.79.676-.502.518-.73 1.034-.729 1.647.001.982.568 1.832 1.497 2.244.436.194.519.198 4.49.23l4.044.032 2.489-2.456 2.489-2.456-5.779.015c-3.177.008-6.198.04-6.711.068zm-8.231 9.88c-.458.115-.985.533-2.704 2.143-.904.847-1.668 1.54-1.697 1.54-.028 0-.294-.19-.59-.424-.807-.638-1.29-.842-1.98-.84-.669.003-1.095.187-1.635.703-.488.467-.715 1.005-.717 1.699-.003.793.23 1.21 1.31 2.34 1.468 1.54 2.248 2.193 2.81 2.354.626.179 1.438.12 1.968-.145.447-.221 5.457-5.11 5.91-5.766.232-.337.27-.478.297-1.105.035-.796-.105-1.24-.554-1.763-.47-.548-1.692-.92-2.418-.736zm20.37 2.912c1.46 1.488 1.842 1.92 1.764 1.995-.093.088-4.705 2.188-4.806 2.188-.038 0-.396-.32-.795-.71l-.725-.71.38-.842c1.107-2.454 1.67-3.663 1.789-3.844l.133-.201.772.698a41.56 41.56 0 011.487 1.426z" fill="url(#paint0_linear)" fill-opacity=".3"/></g><defs><linearGradient id="paint0_linear" x1="85.325" y1="30.775" x2="4.957" y2="61.556" gradientUnits="userSpaceOnUse"><stop stop-color="#5F9BFE"/><stop offset="1" stop-color="#13266B"/></linearGradient><filter id="filter0_i" x="0" y="0" width="80" height="73" filterUnits="userSpaceOnUse" color-interpolation-filters="sRGB"><feFlood flood-opacity="0" result="BackgroundImageFix"/><feBlend in="SourceGraphic" in2="BackgroundImageFix" result="shape"/><feColorMatrix in="SourceAlpha" values="0 0 0 0 0 0 0 0 0 0 0 0 0 0 0 0 0 0 127 0" result="hardAlpha"/><feOffset dy="4"/><feGaussianBlur stdDeviation="2"/><feComposite in2="hardAlpha" operator="arithmetic" k2="-1" k3="1"/><feColorMatrix values="0 0 0 0 0.247059 0 0 0 0 0.517647 0 0 0 0 0.807843 0 0 0 0.6 0"/><feBlend in2="shape" result="effect1_innerShadow"/></filter></defs></svg>