<svg width="68" height="78" fill="none" xmlns="http://www.w3.org/2000/svg"><g filter="url(#filter0_i)" fill-rule="evenodd" clip-rule="evenodd" fill-opacity=".3"><path d="M47.165 40.902c.37.07.704.234 1.065.333.477.29.968.542 1.367 1.017.126.03.157.182.21.286.32.386.678.756.761 1.24.126.204.142.449.272.65.102.3.094.643.16.953l.046 14.725c-.096.178-.005.433-.078.62-.118.334-.125.715-.319 1.017-.13.495-.404.93-.749 1.334-.159.352-.558.534-.827.826-.358.219-.676.54-1.097.605-.269.19-.605.213-.924.284-.154-.024-.263.041-.396.065l-24.507-.016c-.235-.078-.517-.034-.73-.159-.155-.13-.395-.057-.528-.24-.25.032-.384-.226-.603-.268-.454-.406-.966-.774-1.29-1.287-.282-.456-.537-.922-.7-1.43a1.782 1.782 0 01-.19-.715.955.955 0 00-.05-.38l-.062-14.71c.079-.182.052-.404.079-.605.135-.36.104-.789.334-1.112.044-.308.29-.534.383-.826.259-.18.235-.438.493-.618.36-.531.904-.82 1.4-1.128.475-.279 1.03-.365 1.577-.477l24.044-.062c.326-.07.543.125.859.078zm-.765 1.097c.146.093.36.018.524.062l.843.303v.078c-.219.828-.793 1.511-1.177 2.272-.55.69-.934 1.446-1.655 2.066a19.235 19.235 0 01-2.514 2.32l-1.717 1.269c-.298.133-.54.404-.812.604-.867.396-1.634 1.032-2.483 1.478-.459.138-.806.544-1.273.667-.243.198-.559.234-.778.492-.266.245-.71.115-1.052.128-.577-.115-1.013-.566-1.527-.826-.23-.266-.53-.36-.797-.542-.892-.717-1.84-1.298-2.72-2.048l-1.608-1.397a83.792 83.792 0 01-2.067-1.97c-.188-.253-.418-.432-.652-.636-1.23-1.316-2.326-2.686-3.438-4.052.255-.062.511-.198.811-.19l.047-.031 20.385-.063L46.4 42zm2.832 1.699c.003.12.112.193.175.286l.384 1.11a.591.591 0 00.062.334l.047 14.457c-.091.125-.018.318-.063.461-.101.482-.297.925-.43 1.397-1.295-1.428-2.744-2.82-4.263-3.875L43.6 56.787l-2.02-1.16c-.959-.521-1.917-1.045-2.961-1.365-.151-.066-.4-.086-.54.015-.042.058-.136.097-.128.175.342.404.765.604 1.146.904l3.357 2.035c1.036.714 2.114 1.327 3.088 2.192 1.068.935 2.354 1.946 3.054 3.16-.269.24-.595.347-.874.574-.212.015-.345.232-.588.175-.162.14-.425.046-.605.14l-23.948.065c-.151-.073-.342-.054-.512-.08a7.965 7.965 0 01-1.367-.587c.276-.164.532-.375.827-.492.287-.308.642-.587.859-.923.26-.164.433-.406.637-.636l2.038-1.985 1.94-1.618c1.117-.889 2.295-1.631 3.5-2.304.303-.138.319-.477.478-.717-.016-.067.04-.192-.047-.205.008-.052-.055-.073-.08-.112-.403-.086-.677.14-1.019.208-.25.143-.501.29-.762.412l-1.927 1.128-2.083 1.462-2.213 1.764c-.668.495-1.269 1.188-1.877 1.793-.097.135-.185.313-.334.383-.034.107-.196.159-.144.3-.12.041-.029.169-.078.24l-.256.744c-.18-.231-.462-.518-.54-.841-.123-.35-.342-.66-.366-1.048-.104-.096.008-.284-.096-.38l-.063-14.376c.089-.24.084-.519.125-.78.134-.333.199-.695.4-1 .015-.253.334-.38.35-.636l.302-.349c.381.323.564.727.906 1.066l1.91 2.191c.745.88 1.669 1.608 2.483 2.463.682.711 1.454 1.206 2.13 1.936.828.636 1.616 1.352 2.436 2.004 1.05.792 2.078 1.633 3.15 2.366.481.247 1.11.093 1.562-.112.248-.021.44-.178.668-.253.564-.237 1.08-.592 1.655-.81.449-.165.806-.548 1.271-.668 1.368-.85 2.733-1.701 4.06-2.652.71-.668 1.5-1.134 2.18-1.876.649-.634 1.42-1.28 1.892-2.017.608-.62.926-1.363 1.417-2.033.245-.544.439-1.107.684-1.652l.556.683z" fill="url(#paint0_linear)"/><path d="M38.328 21.149L12.758 0C11.503 15.236 0 26.607 0 42.07 0 61.911 16.117 78 35.993 78c10.48 0 21.528-.057 32.007-.057V72.6H49.337c6.173-4.556 10.177-11.874 10.177-20.125 0-13.872-11.22-25.072-25.059-25.072-11.509 0-21.205 7.747-24.143 18.334.98-15.043 14.312-22.344 28.016-24.587zm-3.873 51.507c-11.162 0-20.217-9.04-20.217-20.182 0-11.143 9.055-20.182 20.218-20.182 11.162 0 20.217 9.039 20.217 20.182 0 11.143-9.055 20.182-20.218 20.182z" fill="url(#paint1_linear)"/></g><defs><linearGradient id="paint0_linear" x1="72.526" y1="34.79" x2=".192" y2="55.621" gradientUnits="userSpaceOnUse"><stop stop-color="#5F9BFE"/><stop offset="1" stop-color="#13266B"/></linearGradient><linearGradient id="paint1_linear" x1="72.526" y1="34.79" x2=".192" y2="55.621" gradientUnits="userSpaceOnUse"><stop stop-color="#5F9BFE"/><stop offset="1" stop-color="#13266B"/></linearGradient><filter id="filter0_i" x="0" y="0" width="68" height="82" filterUnits="userSpaceOnUse" color-interpolation-filters="sRGB"><feFlood flood-opacity="0" result="BackgroundImageFix"/><feBlend in="SourceGraphic" in2="BackgroundImageFix" result="shape"/><feColorMatrix in="SourceAlpha" values="0 0 0 0 0 0 0 0 0 0 0 0 0 0 0 0 0 0 127 0" result="hardAlpha"/><feOffset dy="4"/><feGaussianBlur stdDeviation="2"/><feComposite in2="hardAlpha" operator="arithmetic" k2="-1" k3="1"/><feColorMatrix values="0 0 0 0 0.247059 0 0 0 0 0.517647 0 0 0 0 0.807843 0 0 0 0.6 0"/><feBlend in2="shape" result="effect1_innerShadow"/></filter></defs></svg>