<svg id="logo" width="151" height="54" fill="none" xmlns="http://www.w3.org/2000/svg"><path fill-rule="evenodd" clip-rule="evenodd" d="M32.212 27.985c.253.048.481.16.727.228.326.198.662.37.934.695.086.021.107.125.143.196.22.264.464.517.52.849.086.139.097.306.186.444.07.205.064.44.109.652l.032 10.075c-.066.12-.004.295-.054.424-.08.228-.085.488-.217.695-.09.339-.276.637-.512.913-.109.24-.381.365-.565.565-.244.15-.462.37-.749.414-.183.13-.413.146-.63.194-.106-.016-.18.029-.272.045l-16.737-.011c-.16-.054-.353-.023-.499-.109-.105-.089-.269-.04-.36-.164-.171.021-.262-.155-.412-.184-.31-.278-.66-.529-.88-.88a4.443 4.443 0 01-.478-.979 1.217 1.217 0 01-.13-.488.656.656 0 00-.034-.26l-.043-10.064c.054-.125.036-.277.054-.414.092-.246.07-.54.228-.761.03-.21.198-.366.262-.566.176-.122.16-.299.337-.422.246-.364.617-.562.955-.772.325-.19.704-.25 1.077-.326l16.421-.043c.223-.048.371.085.587.053zm-.523.75c.1.064.246.012.359.043l.576.207v.053c-.15.567-.542 1.034-.804 1.555-.377.472-.639.99-1.13 1.413a13.156 13.156 0 01-1.718 1.587l-1.173.868c-.203.091-.369.277-.554.414-.592.27-1.116.706-1.696 1.01-.313.095-.55.373-.87.457-.165.136-.381.16-.53.337-.183.168-.486.079-.72.087-.393-.078-.69-.386-1.042-.565-.157-.181-.362-.246-.544-.37-.61-.49-1.257-.888-1.858-1.402l-1.098-.955a57.15 57.15 0 01-1.412-1.348c-.128-.173-.285-.296-.445-.435-.84-.9-1.589-1.838-2.348-2.772.174-.043.35-.136.554-.13l.032-.022 13.922-.043 2.5.011zm1.935 1.162c.002.082.076.132.12.197l.261.759c-.01.085.01.16.043.228l.032 9.891c-.062.086-.012.218-.043.316-.07.33-.203.633-.294.955-.884-.977-1.874-1.929-2.911-2.65l-1.056-.74-1.38-.794c-.654-.357-1.308-.715-2.021-.934-.103-.045-.273-.06-.37.01-.028.04-.092.067-.086.12.233.276.522.413.782.619l2.293 1.392c.708.488 1.444.907 2.109 1.5.73.64 1.608 1.33 2.086 2.162-.184.164-.407.237-.597.392-.145.01-.236.159-.402.12-.11.096-.29.032-.413.096l-16.355.044c-.104-.05-.234-.037-.35-.055a5.472 5.472 0 01-.934-.401c.189-.112.364-.257.565-.337.196-.21.439-.401.587-.631.178-.112.296-.278.435-.435l1.392-1.359 1.325-1.107a17.454 17.454 0 012.39-1.576c.207-.094.218-.326.327-.49-.011-.046.026-.132-.033-.14.006-.036-.037-.05-.055-.078-.274-.058-.462.097-.695.143-.171.098-.342.198-.52.282l-1.316.772-1.423 1-1.512 1.207c-.456.339-.866.813-1.282 1.226-.066.093-.126.214-.228.262-.023.074-.134.11-.098.205-.082.029-.02.116-.053.165l-.175.51c-.123-.16-.316-.355-.37-.577-.083-.238-.233-.45-.249-.716-.071-.066.006-.195-.066-.26l-.043-9.836c.061-.164.058-.355.086-.533.091-.228.135-.476.273-.685.01-.173.228-.26.239-.435l.207-.239c.26.221.385.498.618.73l1.305 1.499c.508.603 1.14 1.1 1.696 1.685.465.486.993.825 1.454 1.324.566.435 1.104.925 1.664 1.371.716.542 1.419 1.118 2.152 1.619.328.17.757.064 1.066-.077.169-.014.3-.12.456-.173.385-.162.738-.404 1.13-.554.307-.112.551-.375.869-.457.934-.58 1.866-1.164 2.772-1.814.485-.457 1.025-.776 1.488-1.284.444-.433.97-.875 1.293-1.38.415-.424.633-.932.968-1.39.168-.373.3-.758.467-1.13l.38.466zM46.21 43.131V28.048h10.34v1.516h-8.59v4.898h5.208c1.672 0 2.877.31 3.577 1.01.7.662 1.05 1.789 1.05 3.344s-.35 2.643-1.05 3.304c-.7.7-1.905 1.011-3.538 1.011H46.21zm1.75-1.516v-5.676h4.858c1.283 0 2.139.195 2.566.583.428.389.661 1.166.661 2.294 0 1.05-.194 1.788-.583 2.216-.389.389-1.205.583-2.371.583h-5.132zm37.212-13.567H97.76V43.13h-1.715V29.567h-9.16v13.564h-1.714V28.048zm-24.347 6.625h7.95v1.481h-7.95v5.496h8.262v1.48H59.071V28.049h10.055v1.48h-8.3v5.145zm44.806 8.458c2.629 0 4.343-.457 5.181-1.41.838-.951 1.257-3.008 1.257-6.132 0-3.085-.419-5.142-1.257-6.094-.838-.952-2.552-1.447-5.162-1.447-2.609 0-4.323.495-5.161 1.447-.838.952-1.257 2.971-1.257 6.094 0 3.124.419 5.142 1.257 6.095.838.99 2.552 1.447 5.142 1.447zm0-1.447c2.095 0 3.39-.343 3.924-1.067.533-.723.8-2.4.8-5.028 0-2.628-.267-4.342-.8-5.027-.534-.724-1.829-1.067-3.924-1.067-2.095 0-3.39.343-3.923 1.066-.496.686-.762 2.362-.762 5.028 0 2.667.266 4.343.8 5.028.533.724 1.828 1.067 3.885 1.067zm-35.482 1.447l5.661-15.083h2.494l5.74 15.083h-1.821c-1.702-4.632-3.404-9.185-5.146-13.856-1.663 4.632-3.246 9.303-5.067 13.856h-1.861z" fill="#fff"/><path fill-rule="evenodd" clip-rule="evenodd" d="M26.177 14.469L8.713 0C7.857 10.424 0 18.203 0 28.783c0 13.574 11.007 24.581 24.582 24.581 7.157 0 14.702-.038 21.86-.038v-3.657H33.694c4.216-3.117 6.95-8.123 6.95-13.769 0-9.49-7.662-17.152-17.113-17.152-7.86 0-14.483 5.3-16.49 12.543.67-10.292 9.775-15.287 19.135-16.822zm-2.645 35.24c-7.624 0-13.808-6.185-13.808-13.809 0-7.623 6.184-13.807 13.808-13.807 7.623 0 13.808 6.184 13.808 13.807 0 7.624-6.185 13.808-13.808 13.808zm123.891-9.649l1.166 3.07h1.866l-5.792-15.083h-2.527l-5.676 15.084h1.866l1.244-3.071h7.853zm-7.425-1.478l3.421-9.271 3.459 9.271h-6.88zm-6.45-9.015v13.564h-1.753V29.567h-5.106v-1.52h11.926v1.52h-5.067z" fill="#fff"/><path d="M123.427 43.131v-7.089c-.671.175-1.43.276-2.275.302a71.97 71.97 0 01-2.276.04c-2.054 0-3.423-.321-4.108-.966-.685-.644-1.027-1.926-1.027-3.846v-3.524h1.671v3.826c0 1.329.309 2.188.927 2.578.47.295 1.45.443 2.94.443h.463c.832 0 1.537-.017 2.114-.05a8.242 8.242 0 001.571-.232v-6.565h1.672V43.13h-1.672z" fill="#fff"/></svg>