<svg width="71" height="71" fill="none" xmlns="http://www.w3.org/2000/svg"><circle cx="35.5" cy="35.5" r="35.5" transform="rotate(-180 35.5 35.5)" fill="#000" fill-opacity=".35"/><path d="M27.434 36.553l12.12 12.016c.28.278.655.431 1.054.431s.773-.153 1.053-.431l.893-.885a1.47 1.47 0 000-2.089l-10.178-10.09 10.189-10.1A1.46 1.46 0 0043 24.36c0-.396-.155-.767-.435-1.045l-.893-.885A1.486 1.486 0 0040.62 22c-.4 0-.773.153-1.054.431l-12.13 12.026A1.462 1.462 0 0027 35.505c0 .398.153.77.434 1.048z" fill="#fff"/><path d="M26 35.505c0 .663.26 1.291.73 1.758h0L38.85 49.28s0 0 0 0c.47.466 1.098.721 1.758.721.66 0 1.287-.255 1.757-.721 0 0 0 0 0 0s0 0 0 0l.893-.885h0a2.47 2.47 0 000-3.509s0 0 0 0l-9.461-9.38 9.472-9.39h0A2.46 2.46 0 0044 24.36c0-.663-.261-1.29-.73-1.755h-.001l-.893-.885s0 0 0 0A2.486 2.486 0 0040.62 21c-.66 0-1.288.255-1.758.721l-12.13 12.026h-.001a2.462 2.462 0 00-.73 1.758zm0 0v-.002l1 .002-1 .002v-.002z" stroke="#000" stroke-opacity=".14" stroke-width="2"/></svg>