<svg id="hightech" width="96" height="14" fill="none" xmlns="http://www.w3.org/2000/svg"><path d="M9.373 1.2V11h-1.82V6.8H2.485V11H.665V1.2h1.82v4.046h5.068V1.2h1.82zm2.738 2.324h1.75V11h-1.75V3.524zm.882-1.232c-.318 0-.584-.098-.798-.294a1.005 1.005 0 01-.322-.756.96.96 0 01.322-.742 1.11 1.11 0 01.798-.308c.317 0 .583.098.798.294a.904.904 0 01.322.714c0 .308-.108.57-.322.784-.206.205-.472.308-.798.308zm10.865 1.232v6.342c0 2.632-1.345 3.948-4.032 3.948-.72 0-1.4-.093-2.044-.28-.645-.177-1.177-.439-1.596-.784l.784-1.316c.326.27.737.485 1.232.644a4.798 4.798 0 001.525.252c.822 0 1.424-.187 1.806-.56.383-.373.575-.943.575-1.708V9.67a2.876 2.876 0 01-1.093.742c-.429.168-.9.252-1.413.252a4.15 4.15 0 01-1.933-.448 3.532 3.532 0 01-1.358-1.288c-.326-.55-.49-1.18-.49-1.89s.164-1.335.49-1.876a3.43 3.43 0 011.358-1.274 4.15 4.15 0 011.933-.448 3.89 3.89 0 011.47.266c.448.177.82.448 1.12.812v-.994h1.666zm-3.99 5.656c.662 0 1.204-.196 1.623-.588.43-.401.645-.92.645-1.554 0-.625-.215-1.134-.645-1.526-.42-.392-.96-.588-1.623-.588-.672 0-1.223.196-1.652.588-.42.392-.63.9-.63 1.526 0 .635.21 1.153.63 1.554.429.392.98.588 1.651.588zM30.68 3.44c.943 0 1.699.275 2.268.826.57.55.854 1.367.854 2.45V11h-1.75V6.94c0-.653-.154-1.143-.462-1.47-.308-.336-.746-.504-1.316-.504-.644 0-1.152.196-1.526.588-.373.383-.56.938-.56 1.666V11h-1.75V.612h1.75v3.78c.29-.308.644-.541 1.064-.7.43-.168.906-.252 1.428-.252zm5.244 2.94h3.85v1.456h-3.85V6.38zM46.6 10.594a2.057 2.057 0 01-.756.378 3.3 3.3 0 01-.924.126c-.822 0-1.456-.215-1.904-.644-.448-.43-.672-1.055-.672-1.876V4.98h-1.232v-1.4h1.232V1.872h1.75V3.58h2.002v1.4h-2.002v3.556c0 .364.088.644.266.84.177.187.434.28.77.28.392 0 .718-.103.98-.308l.49 1.246zm8.501-3.29c0 .121-.01.294-.028.518h-5.866c.103.55.369.99.798 1.316.439.317.98.476 1.624.476.822 0 1.498-.27 2.03-.812l.938 1.078a3.16 3.16 0 01-1.274.91c-.513.205-1.092.308-1.736.308-.821 0-1.545-.163-2.17-.49a3.59 3.59 0 01-1.456-1.358c-.336-.588-.504-1.25-.504-1.988 0-.728.163-1.381.49-1.96a3.56 3.56 0 011.386-1.372c.588-.327 1.25-.49 1.988-.49.728 0 1.377.163 1.946.49a3.3 3.3 0 011.344 1.358c.327.579.49 1.25.49 2.016zm-3.78-2.464c-.56 0-1.036.168-1.428.504-.383.327-.616.765-.7 1.316h4.242c-.075-.541-.303-.98-.686-1.316-.383-.336-.858-.504-1.428-.504zm9.171 6.258c-.774 0-1.47-.163-2.086-.49a3.614 3.614 0 01-1.442-1.358c-.345-.588-.518-1.25-.518-1.988 0-.737.173-1.395.518-1.974a3.638 3.638 0 011.428-1.358c.616-.327 1.316-.49 2.1-.49.738 0 1.382.15 1.932.448a2.9 2.9 0 011.26 1.288l-1.344.784a2.065 2.065 0 00-.812-.77 2.116 2.116 0 00-1.05-.266c-.653 0-1.195.215-1.624.644-.43.42-.644.985-.644 1.694 0 .71.21 1.279.63 1.708.43.42.975.63 1.638.63.383 0 .733-.084 1.05-.252.327-.177.598-.439.812-.784l1.344.784a3.06 3.06 0 01-1.274 1.302c-.55.299-1.19.448-1.918.448zM69.65 3.44c.943 0 1.7.275 2.268.826.57.55.854 1.367.854 2.45V11h-1.75V6.94c0-.653-.154-1.143-.462-1.47-.308-.336-.746-.504-1.316-.504-.644 0-1.152.196-1.525.588-.374.383-.56.938-.56 1.666V11h-1.75V.612h1.75v3.78a2.784 2.784 0 011.063-.7c.43-.168.906-.252 1.428-.252zm6.182 7.658a1.13 1.13 0 01-.811-.322 1.14 1.14 0 01-.337-.84c0-.345.108-.625.323-.84.224-.215.499-.322.825-.322a1.1 1.1 0 01.813.322c.224.215.336.495.336.84 0 .336-.112.616-.337.84a1.13 1.13 0 01-.812.322zm7.283-7.658c.728 0 1.376.159 1.946.476a3.42 3.42 0 011.357 1.344c.327.579.49 1.246.49 2.002 0 .756-.163 1.428-.49 2.016a3.42 3.42 0 01-1.358 1.344c-.569.317-1.218.476-1.945.476a3.67 3.67 0 01-1.414-.266 2.717 2.717 0 01-1.064-.798V11H78.97V.612h1.75v3.822a2.954 2.954 0 011.05-.742c.41-.168.858-.252 1.344-.252zm-.197 6.16c.644 0 1.172-.215 1.582-.644.42-.43.63-.994.63-1.694s-.21-1.265-.63-1.694c-.41-.43-.938-.644-1.582-.644-.42 0-.797.098-1.134.294a2.026 2.026 0 00-.797.812c-.197.355-.294.765-.294 1.232 0 .467.097.877.294 1.232.196.355.462.63.797.826.337.187.715.28 1.134.28zm12.725-6.076l-3.5 8.078c-.327.812-.723 1.381-1.19 1.708-.467.336-1.031.504-1.694.504a3.46 3.46 0 01-1.106-.182 2.443 2.443 0 01-.896-.504l.7-1.288a1.914 1.914 0 001.288.518c.308 0 .56-.08.756-.238.205-.159.392-.425.56-.798l.126-.294-3.262-7.504h1.82l2.352 5.53 2.366-5.53h1.68z" fill="#fff"/></svg>