<svg width="60" height="60" fill="none" xmlns="http://www.w3.org/2000/svg"><g filter="url(#filter0_d)"><path d="M13.439 42.99s-.036 1.01.838 1.01c1.086 0 10.083-.013 10.083-.013l.014-9.326s-.142-1.537 1.18-1.537h4.184c1.563 0 1.467 1.537 1.467 1.537l-.018 9.296h9.87c1.109 0 1.058-1.257 1.058-1.257V25.508l-13.91-13.965L13.44 25.51v17.48z" fill="url(#paint0_linear)"/><path d="M8 24.21s1.254 2.607 3.988 0l16.34-15.603L43.65 24.112c3.165 2.577 4.351 0 4.351 0L28.329 4 8 24.21z" fill="url(#paint1_linear)"/><path d="M43.278 8.569h-3.941l.016 5.393 3.925 3.758V8.57z" fill="url(#paint2_linear)"/></g><defs><linearGradient id="paint0_linear" x1="46.348" y1="21.841" x2="8.286" y2="33.143" gradientUnits="userSpaceOnUse"><stop stop-color="#5F9BFE"/><stop offset="1" stop-color="#13266B"/></linearGradient><linearGradient id="paint1_linear" x1="46.348" y1="21.841" x2="8.286" y2="33.143" gradientUnits="userSpaceOnUse"><stop stop-color="#5F9BFE"/><stop offset="1" stop-color="#13266B"/></linearGradient><linearGradient id="paint2_linear" x1="46.348" y1="21.841" x2="8.286" y2="33.143" gradientUnits="userSpaceOnUse"><stop stop-color="#5F9BFE"/><stop offset="1" stop-color="#13266B"/></linearGradient><filter id="filter0_d" x="0" y="0" width="60" height="60" filterUnits="userSpaceOnUse" color-interpolation-filters="sRGB"><feFlood flood-opacity="0" result="BackgroundImageFix"/><feColorMatrix in="SourceAlpha" values="0 0 0 0 0 0 0 0 0 0 0 0 0 0 0 0 0 0 127 0" result="hardAlpha"/><feOffset dx="2" dy="6"/><feGaussianBlur stdDeviation="5"/><feComposite in2="hardAlpha" operator="out"/><feColorMatrix values="0 0 0 0 0.121569 0 0 0 0 0.113725 0 0 0 0 0.443137 0 0 0 0.3 0"/><feBlend in2="BackgroundImageFix" result="effect1_dropShadow"/><feBlend in="SourceGraphic" in2="effect1_dropShadow" result="shape"/></filter></defs></svg>