<svg width="1080" height="608" fill="none" xmlns="http://www.w3.org/2000/svg"><path fill="url(#paint0_radial)" d="M0 0h1080v608H0z"/><path fill="url(#paint1_linear)" fill-opacity=".72" d="M0 0h1080v608H0z"/><path fill-rule="evenodd" clip-rule="evenodd" d="M384.362 292.401c.917.175 1.744.582 2.635.827 1.182.717 2.397 1.344 3.385 2.519.31.078.388.453.517.711.794.956 1.679 1.873 1.886 3.075.31.504.349 1.111.672 1.609.252.743.232 1.595.394 2.364l.116 36.504c-.239.44-.013 1.073-.194 1.538-.29.827-.309 1.77-.788 2.519-.323 1.227-1.001 2.307-1.854 3.308-.393.872-1.382 1.324-2.047 2.047-.885.543-1.673 1.338-2.714 1.499-.665.472-1.498.53-2.286.704-.382-.058-.653.104-.982.162l-60.645-.039c-.582-.194-1.28-.084-1.809-.394-.381-.323-.976-.142-1.305-.594-.62.077-.95-.562-1.492-.666-1.124-1.007-2.39-1.918-3.192-3.191-.697-1.131-1.33-2.287-1.731-3.546a4.421 4.421 0 01-.471-1.77 2.388 2.388 0 00-.123-.944l-.155-36.466c.194-.452.129-1.001.194-1.498.336-.892.258-1.957.827-2.758.109-.763.717-1.325.949-2.048.64-.446.582-1.086 1.221-1.531.892-1.318 2.235-2.035 3.463-2.798 1.175-.691 2.551-.904 3.901-1.181l59.502-.156c.808-.174 1.344.31 2.126.194zm-1.893 2.72c.361.232.891.045 1.298.155l2.087.75v.193c-.543 2.054-1.964 3.747-2.914 5.633-1.363 1.712-2.312 3.585-4.095 5.123a47.741 47.741 0 01-6.221 5.749l-4.251 3.146c-.736.33-1.337 1.001-2.009 1.499-2.144.981-4.044 2.558-6.143 3.662-1.137.343-1.996 1.351-3.152 1.654-.601.491-1.383.582-1.925 1.221-.659.607-1.758.284-2.604.316-1.427-.284-2.506-1.401-3.779-2.047-.568-.659-1.311-.892-1.97-1.344-2.209-1.777-4.554-3.217-6.731-5.077l-3.98-3.463a209.458 209.458 0 01-5.116-4.883c-.465-.627-1.033-1.073-1.615-1.577-3.042-3.262-5.755-6.66-8.507-10.045.633-.155 1.266-.491 2.009-.471l.116-.078 50.445-.155 9.057.039zm7.009 4.212c.006.297.278.478.432.71l.95 2.752c-.039.31.039.582.155.827l.116 35.839c-.226.31-.045.788-.155 1.144-.251 1.195-.736 2.293-1.066 3.462-3.203-3.54-6.789-6.989-10.548-9.606l-3.825-2.68-5-2.875c-2.37-1.292-4.741-2.59-7.325-3.385-.375-.162-.989-.213-1.337.039-.104.142-.336.239-.317.433.846 1.001 1.893 1.498 2.836 2.241l8.307 5.045c2.565 1.77 5.233 3.288 7.642 5.433 2.643 2.319 5.827 4.825 7.558 7.836-.665.594-1.472.859-2.164 1.421-.523.039-.853.575-1.453.433-.401.349-1.053.116-1.499.349l-59.262.161c-.375-.181-.847-.135-1.267-.2-1.175-.356-2.293-.885-3.384-1.454.684-.406 1.317-.93 2.047-1.221.711-.762 1.589-1.453 2.125-2.286.647-.407 1.073-1.008 1.576-1.577l5.046-4.922 4.8-4.012c2.764-2.202 5.678-4.043 8.662-5.71.75-.342.788-1.182 1.182-1.777-.038-.168.097-.477-.116-.51.019-.129-.136-.181-.2-.278-.995-.213-1.673.349-2.519.517-.621.355-1.241.717-1.887 1.021l-4.767 2.797-5.155 3.624-5.478 4.373c-1.654 1.227-3.14 2.946-4.645 4.445-.239.336-.458.775-.827.949-.084.265-.484.394-.355.743-.297.103-.071.42-.194.594l-.633 1.848c-.446-.575-1.144-1.286-1.337-2.087-.304-.865-.846-1.634-.905-2.596-.258-.239.02-.705-.239-.944l-.155-35.638c.221-.595.208-1.286.311-1.932.329-.827.49-1.725.988-2.481.039-.627.827-.943.866-1.576l.749-.866c.943.802 1.396 1.803 2.241 2.643l4.729 5.432c1.841 2.184 4.128 3.986 6.144 6.105 1.686 1.763 3.598 2.991 5.271 4.8 2.048 1.576 3.998 3.352 6.027 4.967 2.596 1.964 5.142 4.05 7.797 5.866 1.189.614 2.746.232 3.863-.278.614-.052 1.091-.439 1.654-.627 1.395-.587 2.674-1.466 4.095-2.009 1.111-.407 1.996-1.356 3.146-1.654 3.385-2.105 6.764-4.218 10.045-6.576 1.757-1.654 3.715-2.81 5.394-4.651 1.609-1.569 3.514-3.171 4.684-5 1.505-1.537 2.293-3.378 3.507-5.038.608-1.35 1.086-2.746 1.693-4.096l1.376 1.693zm45.605 47.951V292.63h37.468v5.494h-31.129v17.748h18.875c6.057 0 10.423 1.127 12.959 3.663 2.535 2.394 3.803 6.479 3.803 12.114 0 5.634-1.268 9.578-3.803 11.973-2.536 2.535-6.902 3.662-12.818 3.662h-25.355zm6.339-5.493v-20.566h17.607c4.648 0 7.747.704 9.297 2.113 1.549 1.408 2.394 4.225 2.394 8.311 0 3.803-.704 6.479-2.112 8.029-1.409 1.408-4.367 2.113-8.593 2.113h-18.593zm134.839-49.161h45.615v54.654h-6.214v-49.148h-33.187v49.148h-6.214V292.63zm-88.219 24.008h28.807v5.367h-28.807v19.912h29.936v5.367h-36.291V292.63h36.433v5.366h-30.078v18.642zm162.352 30.646c9.524 0 15.736-1.656 18.772-5.106 3.036-3.451 4.555-10.904 4.555-22.221 0-11.179-1.519-18.632-4.555-22.083-3.036-3.45-9.248-5.244-18.703-5.244-9.454 0-15.665 1.794-18.702 5.244-3.037 3.451-4.555 10.766-4.555 22.083 0 11.317 1.518 18.632 4.555 22.083 3.037 3.588 9.248 5.244 18.633 5.244zm0-5.244c7.592 0 12.285-1.243 14.217-3.865 1.933-2.622 2.899-8.695 2.899-18.218s-.966-15.734-2.899-18.218c-1.932-2.622-6.625-3.865-14.217-3.865-7.591 0-12.284 1.243-14.216 3.865-1.795 2.484-2.761 8.557-2.761 18.218s.967 15.734 2.899 18.218c1.932 2.622 6.625 3.865 14.078 3.865zm-128.568 5.244l20.512-54.654h9.037l20.799 54.654h-6.598c-6.168-16.783-12.336-33.28-18.648-50.207-6.024 16.783-11.762 33.71-18.361 50.207h-6.741z" fill="#fff"/><path fill-rule="evenodd" clip-rule="evenodd" d="M362.493 243.428L299.213 191c-3.101 37.771-31.57 65.958-31.57 104.293 0 49.186 39.885 89.071 89.072 89.071 25.932 0 53.274-.14 79.206-.14v-13.248h-46.185c15.276-11.295 25.185-29.436 25.185-49.892 0-34.388-27.764-62.153-62.012-62.153-28.482 0-52.476 19.204-59.748 45.45 2.426-37.292 35.418-55.391 69.332-60.953zm-9.584 127.688c-27.623 0-50.032-22.408-50.032-50.032 0-27.623 22.409-50.032 50.032-50.032 27.624 0 50.032 22.409 50.032 50.032 0 27.624-22.408 50.032-50.032 50.032zm448.916-34.961l4.226 11.128h6.761l-20.988-54.654h-9.156l-20.565 54.654h6.761l4.507-11.128h28.454zm-26.904-5.353l12.396-33.595 12.536 33.595h-24.932zm-23.369-32.666v49.147h-6.354v-49.147h-18.502v-5.507h43.214v5.507h-18.358z" fill="#fff"/><path d="M714.878 347.283v-25.685c-2.432.633-5.181.998-8.246 1.094-3.064.098-5.812.147-8.245.147-7.443 0-12.404-1.168-14.886-3.503-2.481-2.335-3.721-6.98-3.721-13.937v-12.77h6.056v13.865c0 4.816 1.119 7.929 3.357 9.34 1.703 1.07 5.254 1.605 10.654 1.605h1.678c3.016 0 5.57-.061 7.661-.183 2.093-.121 3.99-.401 5.692-.839v-23.788h6.057v54.654h-6.057z" fill="#fff"/><path opacity=".2" d="M341.101 368S-473.193 276.816 572 117" stroke="url(#paint2_linear)" stroke-width="21" stroke-linecap="round"/><g opacity=".2" filter="url(#filter0_d)"><path d="M341.101 368S-473.193 276.816 572 117" stroke="url(#paint3_linear)" stroke-width="21" stroke-linecap="round"/></g><path opacity=".2" d="M722.426 165S1616.16 291.422 469 513" stroke="url(#paint4_linear)" stroke-width="21" stroke-linecap="round"/><g opacity=".2" filter="url(#filter1_d)"><path d="M722.426 165S1616.16 291.422 469 513" stroke="url(#paint5_linear)" stroke-width="21" stroke-linecap="round"/></g><defs><linearGradient id="paint1_linear" x1="540" y1="0" x2="540" y2="608" gradientUnits="userSpaceOnUse"><stop stop-color="#fff"/><stop offset=".568" stop-color="#4791D1" stop-opacity="0"/><stop offset="1" stop-color="#fff"/></linearGradient><linearGradient id="paint2_linear" x1="305.5" y1="117" x2="305.5" y2="368" gradientUnits="userSpaceOnUse"><stop stop-color="#fff"/><stop offset=".458" stop-color="#910D0D"/><stop offset="1" stop-color="#E37936" stop-opacity=".01"/></linearGradient><linearGradient id="paint3_linear" x1="305.5" y1="117" x2="305.5" y2="368" gradientUnits="userSpaceOnUse"><stop stop-color="#fff"/><stop offset=".458" stop-color="#fff" stop-opacity="0"/><stop offset="1" stop-color="#E37936" stop-opacity=".01"/></linearGradient><linearGradient id="paint4_linear" x1="761.5" y1="513" x2="761.5" y2="165" gradientUnits="userSpaceOnUse"><stop stop-color="#fff"/><stop offset=".458" stop-color="#910D0D"/><stop offset="1" stop-color="#E37936" stop-opacity=".01"/></linearGradient><linearGradient id="paint5_linear" x1="761.5" y1="513" x2="761.5" y2="165" gradientUnits="userSpaceOnUse"><stop stop-color="#fff"/><stop offset=".458" stop-color="#fff" stop-opacity="0"/><stop offset="1" stop-color="#E37936" stop-opacity=".01"/></linearGradient><filter id="filter0_d" x="24.496" y="106.499" width="562.006" height="280.002" filterUnits="userSpaceOnUse" color-interpolation-filters="sRGB"><feFlood flood-opacity="0" result="BackgroundImageFix"/><feColorMatrix in="SourceAlpha" values="0 0 0 0 0 0 0 0 0 0 0 0 0 0 0 0 0 0 127 0" result="hardAlpha"/><feOffset dy="4"/><feGaussianBlur stdDeviation="2"/><feColorMatrix values="0 0 0 0 1 0 0 0 0 1 0 0 0 0 1 0 0 0 0.25 0"/><feBlend in2="BackgroundImageFix" result="effect1_dropShadow"/><feBlend in="SourceGraphic" in2="effect1_dropShadow" result="shape"/></filter><filter id="filter1_d" x="454.498" y="154.499" width="614.019" height="377.003" filterUnits="userSpaceOnUse" color-interpolation-filters="sRGB"><feFlood flood-opacity="0" result="BackgroundImageFix"/><feColorMatrix in="SourceAlpha" values="0 0 0 0 0 0 0 0 0 0 0 0 0 0 0 0 0 0 127 0" result="hardAlpha"/><feOffset dy="4"/><feGaussianBlur stdDeviation="2"/><feColorMatrix values="0 0 0 0 1 0 0 0 0 1 0 0 0 0 1 0 0 0 0.25 0"/><feBlend in2="BackgroundImageFix" result="effect1_dropShadow"/><feBlend in="SourceGraphic" in2="effect1_dropShadow" result="shape"/></filter><radialGradient id="paint0_radial" cx="0" cy="0" r="1" gradientUnits="userSpaceOnUse" gradientTransform="matrix(0 665.5 -717.392 0 540 304)"><stop stop-color="#009DE9"/><stop offset=".552" stop-color="#4D74B8"/></radialGradient></defs></svg>