<svg width="65" height="78" fill="none" xmlns="http://www.w3.org/2000/svg"><g filter="url(#filter0_i)" fill-rule="evenodd" clip-rule="evenodd" fill-opacity=".3"><path d="M44.05 44.172s10.496 6.358 14.825 6.906c3.9.493 5.396 4.28 5.951 8.22.541 3.837-.324 8.002-.649 10.632-20.344 11.619-46.1 9.865-63.413 0-.866-2.301-.975-6.905-.433-11.18.463-3.652 1.852-6.92 5.41-7.672C12.992 49.543 21 44.282 21 44.282l6.925 22.14 2.814-7.89s-3.452-3.611-2.597-6.03c.704-1.99 2.24-3.153 4.329-3.178 2.122-.025 3.728 1.152 4.436 3.179.853 2.437-2.705 6.028-2.705 6.028l2.922 7.892 6.925-22.25zm-9.848 28.696L32.5 68.763l-1.761 4.105h3.463z" fill="url(#paint0_linear)"/><path d="M45.889 32.883c1.515.548 6.168-10.852 1.515-10.852 0 0 3.787-15.126-3.896-16.44C43.508 5.59 41.128 0 32.254 0 26.302 0 13.1 6.467 17.104 22.031c-3.246-1.753-2.056 9.317 1.407 10.852l.57 2.572c.264.735.62 1.578 1.08 2.462l.056.107c1.916 3.623 5.594 7.872 11.929 8.121.133-.06.416-.085.814-.12 2.502-.222 9.568-.85 12.929-13.142zM39.102 7.697c-.15-.59-3.023-2.859-6.602-2.565-18.79 1.54-7.617 27.197-7.617 27.197l-1.523-1.026s.074 1.94.507 3.079c2.54 6.67 8.125 6.67 8.125 6.67 8.125.514 10.157-13.855 10.157-13.855h-1.524s4.063-9.75 2.032-16.42c-.298-.977-2.54-.514-2.54-.514s-.866-1.976-1.015-2.566z" fill="url(#paint1_linear)"/></g><defs><linearGradient id="paint0_linear" x1="69.327" y1="34.79" x2="-.276" y2="53.95" gradientUnits="userSpaceOnUse"><stop stop-color="#5F9BFE"/><stop offset="1" stop-color="#13266B"/></linearGradient><linearGradient id="paint1_linear" x1="69.327" y1="34.79" x2="-.276" y2="53.95" gradientUnits="userSpaceOnUse"><stop stop-color="#5F9BFE"/><stop offset="1" stop-color="#13266B"/></linearGradient><filter id="filter0_i" x="0" y="0" width="65" height="82" filterUnits="userSpaceOnUse" color-interpolation-filters="sRGB"><feFlood flood-opacity="0" result="BackgroundImageFix"/><feBlend in="SourceGraphic" in2="BackgroundImageFix" result="shape"/><feColorMatrix in="SourceAlpha" values="0 0 0 0 0 0 0 0 0 0 0 0 0 0 0 0 0 0 127 0" result="hardAlpha"/><feOffset dy="4"/><feGaussianBlur stdDeviation="2"/><feComposite in2="hardAlpha" operator="arithmetic" k2="-1" k3="1"/><feColorMatrix values="0 0 0 0 0.247059 0 0 0 0 0.517647 0 0 0 0 0.807843 0 0 0 0.6 0"/><feBlend in2="shape" result="effect1_innerShadow"/></filter></defs></svg>