<svg width="1080" height="1129" fill="none" xmlns="http://www.w3.org/2000/svg"><g clip-path="url(#clip0)"><path fill="#F7F7F7" d="M0 0h1080v1129H0z"/><g filter="url(#filter0_i)"><path d="M464.402 869.724c-12.335-313.592 219.707-144.819 564.508-332.416l101.34-78.196-30.16 86.079c-2.03 41.754-70.69 142.695-329.09 212.438-323.001 87.178-71.048 118.064-151.445 238.819-64.317 96.602-84.428 211.822-84.428 211.822L237 1175.25s239.737 8.07 227.402-305.526z" fill="#3F7BF0" fill-opacity=".01"/></g><path d="M464.402 869.724c-12.335-313.592 219.707-144.819 564.508-332.416l101.34-78.196-30.16 86.079c-2.03 41.754-70.69 142.695-329.09 212.438-323.001 87.178-71.048 118.064-151.445 238.819-64.317 96.602-84.428 211.822-84.428 211.822L237 1175.25s239.737 8.07 227.402-305.526z" stroke="#fff" stroke-opacity=".1" stroke-width="104"/><g filter="url(#filter1_i)"><path d="M697.784 895.363c-39.522-326.957 240.48-168.067 621.086-390.339l110-89.438-27.65 92.289c1.04 43.811-69.6 154.557-360.57 247.055-266.65 84.767-27.63 143.853-110.15 276.2-66.014 105.89-124.152 212.86-124.152 212.86l-344.879-11.94s275.837-9.73 236.315-336.687z" fill="#2680CD" fill-opacity=".03"/></g><path d="M697.784 895.363c-39.522-326.957 240.48-168.067 621.086-390.339l110-89.438-27.65 92.289c1.04 43.811-69.6 154.557-360.57 247.055-266.65 84.767-27.63 143.853-110.15 276.2-66.014 105.89-124.152 212.86-124.152 212.86l-344.879-11.94s275.837-9.73 236.315-336.687z" stroke="#fff" stroke-opacity=".01" stroke-width="9"/><g clip-path="url(#clip1)" filter="url(#filter2_d)"><path d="M877.426 696.257l-66.07 20.287c-6.162 1.892-9.636 8.444-7.744 14.606l13.025 42.418c1.892 6.161 8.444 9.635 14.605 7.743l66.071-20.287c6.162-1.892 9.635-8.444 7.743-14.605l-13.024-42.418c-1.892-6.162-8.444-9.636-14.606-7.744zm.468 7.744l-23.868 33.779-38.711-14.564 62.579-19.215zm17.206 49.816l-66.071 20.287a4.154 4.154 0 01-5.184-2.749l-12.801-41.689 43.053 16.197a3.768 3.768 0 004.406-1.353l26.545-37.567 12.8 41.689a4.154 4.154 0 01-2.748 5.185z" fill="#fff"/></g><g clip-path="url(#clip2)" filter="url(#filter3_d)"><path d="M772.752 668.312l-28.186-1.939a4.783 4.783 0 00-5.095 4.439l-1.245 18.096a4.784 4.784 0 004.439 5.095l28.186 1.939a4.784 4.784 0 005.095-4.439l1.245-18.095a4.785 4.785 0 00-4.439-5.096zm-.957 3.024l-14.057 9.393-12.639-11.23 26.696 1.837zm-.733 21.531l-28.186-1.939a1.697 1.697 0 01-1.575-1.809l1.223-17.784 14.056 12.489a1.54 1.54 0 001.88.129l15.634-10.446-1.223 17.785a1.697 1.697 0 01-1.809 1.575z" fill="#fff"/></g><g clip-path="url(#clip3)" filter="url(#filter4_d)"><path d="M682.44 846.322l-104.815 5.014c-9.775.467-17.347 8.8-16.88 18.575l3.219 67.292c.468 9.775 8.801 17.347 18.575 16.88l104.816-5.014c9.775-.467 17.347-8.8 16.879-18.575l-3.218-67.292c-.468-9.775-8.801-17.347-18.576-16.88zm-2.222 11.568l-47.804 40.719-51.473-35.971 99.277-4.748zm6.59 79.745l-104.816 5.014a6.307 6.307 0 01-6.593-5.992l-3.163-66.136 57.244 40.005a5.717 5.717 0 003.553 1.025 5.717 5.717 0 003.438-1.359l53.165-45.286 3.163 66.135a6.307 6.307 0 01-5.991 6.594z" fill="#fff"/></g><g clip-path="url(#clip4)" filter="url(#filter5_d)"><path d="M998.582 862.642l-168.673 88.74c-15.729 8.275-21.794 27.806-13.519 43.536l56.972 108.292c8.276 15.73 27.807 21.79 43.536 13.52l168.672-88.74c15.73-8.28 21.8-27.81 13.52-43.54l-56.97-108.289c-8.28-15.73-27.81-21.795-43.538-13.519zm5.228 20.746L956.391 987.12l-112.343-19.681 159.762-84.051zm72.08 126.202l-168.672 88.74c-5.583 2.93-12.516.78-15.453-4.8l-55.993-106.431 124.942 21.891c2.33.41 4.651 0 6.634-1.04a10.418 10.418 0 004.616-4.88l52.736-115.365 55.99 106.427c2.94 5.584.78 12.518-4.8 15.458z" fill="#fff"/></g></g><defs><filter id="filter0_i" x="231.888" y="310.14" width="1005.81" height="959.195" filterUnits="userSpaceOnUse" color-interpolation-filters="sRGB"><feFlood flood-opacity="0" result="BackgroundImageFix"/><feBlend in="SourceGraphic" in2="BackgroundImageFix" result="shape"/><feColorMatrix in="SourceAlpha" values="0 0 0 0 0 0 0 0 0 0 0 0 0 0 0 0 0 0 127 0" result="hardAlpha"/><feOffset dy="4"/><feGaussianBlur stdDeviation="76"/><feComposite in2="hardAlpha" operator="arithmetic" k2="-1" k3="1"/><feColorMatrix values="0 0 0 0 0.505882 0 0 0 0 0.788235 0 0 0 0 0.964706 0 0 0 0.25 0"/><feBlend in2="shape" result="effect1_innerShadow"/></filter><filter id="filter1_i" x="461.291" y="402.848" width="976.103" height="849.735" filterUnits="userSpaceOnUse" color-interpolation-filters="sRGB"><feFlood flood-opacity="0" result="BackgroundImageFix"/><feBlend in="SourceGraphic" in2="BackgroundImageFix" result="shape"/><feColorMatrix in="SourceAlpha" values="0 0 0 0 0 0 0 0 0 0 0 0 0 0 0 0 0 0 127 0" result="hardAlpha"/><feOffset dy="4"/><feGaussianBlur stdDeviation="27"/><feComposite in2="hardAlpha" operator="arithmetic" k2="-1" k3="1"/><feColorMatrix values="0 0 0 0 0.245868 0 0 0 0 0.518173 0 0 0 0 0.808333 0 0 0 0.07 0"/><feBlend in2="shape" result="effect1_innerShadow"/></filter><filter id="filter2_d" x="778.55" y="667" width="151.569" height="151.569" filterUnits="userSpaceOnUse" color-interpolation-filters="sRGB"><feFlood flood-opacity="0" result="BackgroundImageFix"/><feColorMatrix in="SourceAlpha" values="0 0 0 0 0 0 0 0 0 0 0 0 0 0 0 0 0 0 127 0" result="hardAlpha"/><feOffset dy="4"/><feGaussianBlur stdDeviation="9"/><feColorMatrix values="0 0 0 0 0.645833 0 0 0 0 0.645833 0 0 0 0 0.645833 0 0 0 0.1 0"/><feBlend in2="BackgroundImageFix" result="effect1_dropShadow"/><feBlend in="SourceGraphic" in2="effect1_dropShadow" result="shape"/></filter><filter id="filter3_d" x="719.55" y="647" width="76.316" height="76.316" filterUnits="userSpaceOnUse" color-interpolation-filters="sRGB"><feFlood flood-opacity="0" result="BackgroundImageFix"/><feColorMatrix in="SourceAlpha" values="0 0 0 0 0 0 0 0 0 0 0 0 0 0 0 0 0 0 127 0" result="hardAlpha"/><feOffset dy="4"/><feGaussianBlur stdDeviation="9"/><feColorMatrix values="0 0 0 0 0.645833 0 0 0 0 0.645833 0 0 0 0 0.645833 0 0 0 0.1 0"/><feBlend in2="BackgroundImageFix" result="effect1_dropShadow"/><feBlend in="SourceGraphic" in2="effect1_dropShadow" result="shape"/></filter><filter id="filter4_d" x="541" y="812.714" width="182.98" height="182.979" filterUnits="userSpaceOnUse" color-interpolation-filters="sRGB"><feFlood flood-opacity="0" result="BackgroundImageFix"/><feColorMatrix in="SourceAlpha" values="0 0 0 0 0 0 0 0 0 0 0 0 0 0 0 0 0 0 127 0" result="hardAlpha"/><feOffset dy="4"/><feGaussianBlur stdDeviation="9"/><feColorMatrix values="0 0 0 0 0.645833 0 0 0 0 0.645833 0 0 0 0 0.645833 0 0 0 0.1 0"/><feBlend in2="BackgroundImageFix" result="effect1_dropShadow"/><feBlend in="SourceGraphic" in2="effect1_dropShadow" result="shape"/></filter><filter id="filter5_d" x="767.498" y="803.442" width="380.485" height="380.485" filterUnits="userSpaceOnUse" color-interpolation-filters="sRGB"><feFlood flood-opacity="0" result="BackgroundImageFix"/><feColorMatrix in="SourceAlpha" values="0 0 0 0 0 0 0 0 0 0 0 0 0 0 0 0 0 0 127 0" result="hardAlpha"/><feOffset dy="4"/><feGaussianBlur stdDeviation="9"/><feColorMatrix values="0 0 0 0 0.645833 0 0 0 0 0.645833 0 0 0 0 0.645833 0 0 0 0.1 0"/><feBlend in2="BackgroundImageFix" result="effect1_dropShadow"/><feBlend in="SourceGraphic" in2="effect1_dropShadow" result="shape"/></filter><clipPath id="clip0"><path fill="#fff" d="M0 0h1080v1129H0z"/></clipPath><clipPath id="clip1"><path fill="#fff" transform="rotate(-17.069 2757.71 -2299.897)" d="M0 0h92.494v92.494H0z"/></clipPath><clipPath id="clip2"><path fill="#fff" transform="rotate(3.936 -9247.465 11099.611)" d="M0 0h37.809v37.809H0z"/></clipPath><clipPath id="clip3"><path fill="#fff" transform="rotate(-2.738 17713.834 -11276.982)" d="M0 0h140.431v140.431H0z"/></clipPath><clipPath id="clip4"><path fill="#fff" transform="rotate(-27.749 2287.86 -1121.954)" d="M0 0h255.062v255.062H0z"/></clipPath></defs></svg>