<svg width="78" height="78" fill="none" xmlns="http://www.w3.org/2000/svg"><g filter="url(#filter0_i)" fill-opacity=".3"><path d="M31.03 12.297c-.65.585-2.472 2.22-4.511 4.05l-3.36 3.016a3.362 3.362 0 00-4.372 3.212 3.37 3.37 0 001.341 2.695l.336 8.255c0 1.853 3.187 1.853 3.187 0l.503-8.255a3.389 3.389 0 001.222-3.592l6.997-7.864c1.006-1.18-.336-2.42-1.342-1.517z" fill="url(#paint0_linear)"/><path fill-rule="evenodd" clip-rule="evenodd" d="M44.953 22.575c0 12.467-10.064 22.574-22.477 22.574S0 35.042 0 22.575C0 10.107 10.063 0 22.476 0 34.89 0 44.953 10.107 44.953 22.575zm-6.04 0c0 9.117-7.359 16.51-16.437 16.51-9.078 0-16.438-7.393-16.438-16.51 0-9.119 7.36-16.51 16.438-16.51s16.438 7.391 16.438 16.51z" fill="url(#paint1_linear)"/><path d="M65.919 11.96h3.858c6.206.675 8.219 6.234 8.219 8.93v49.192c.167 3.37-4.53 7.918-8.387 7.918H14.257c-4.025 0-7.883-4.212-8.051-7.581l-.168-28.302s3.523 2.527 5.87 3.537v24.091c0 1.516 1.343 2.527 2.35 2.527h55.351c1.174 0 2.18-1.01 2.18-2.19V30.155H46.797c3.355-9.94-1.342-18.194-1.342-18.194h8.387v7.076c0 1.347 2.013 5.054 5.87 5.054 4.865 0 6.207-4.044 6.207-5.054V11.96z" fill="url(#paint2_linear)"/><path d="M33.043 48.181h5.87v5.897h-5.87V48.18z" fill="url(#paint3_linear)"/><path d="M50.99 48.181h-6.038v5.897h6.039V48.18z" fill="url(#paint4_linear)"/><path d="M44.952 36.22h6.039v5.897h-6.039V36.22z" fill="url(#paint5_linear)"/><path d="M62.9 36.22h-5.871v5.897h5.87V36.22z" fill="url(#paint6_linear)"/><path d="M57.029 48.181h5.87v5.897h-5.87V48.18z" fill="url(#paint7_linear)"/><path d="M50.99 60.142h-6.038v6.065h6.039v-6.064z" fill="url(#paint8_linear)"/><path d="M57.029 60.311h5.87v5.896h-5.87v-5.896z" fill="url(#paint9_linear)"/></g><defs><linearGradient id="paint0_linear" x1="83.192" y1="34.79" x2="2.18" y2="61.551" gradientUnits="userSpaceOnUse"><stop stop-color="#5F9BFE"/><stop offset="1" stop-color="#13266B"/></linearGradient><linearGradient id="paint1_linear" x1="83.192" y1="34.79" x2="2.18" y2="61.551" gradientUnits="userSpaceOnUse"><stop stop-color="#5F9BFE"/><stop offset="1" stop-color="#13266B"/></linearGradient><linearGradient id="paint2_linear" x1="83.192" y1="34.79" x2="2.18" y2="61.551" gradientUnits="userSpaceOnUse"><stop stop-color="#5F9BFE"/><stop offset="1" stop-color="#13266B"/></linearGradient><linearGradient id="paint3_linear" x1="83.192" y1="34.79" x2="2.18" y2="61.551" gradientUnits="userSpaceOnUse"><stop stop-color="#5F9BFE"/><stop offset="1" stop-color="#13266B"/></linearGradient><linearGradient id="paint4_linear" x1="83.192" y1="34.79" x2="2.18" y2="61.551" gradientUnits="userSpaceOnUse"><stop stop-color="#5F9BFE"/><stop offset="1" stop-color="#13266B"/></linearGradient><linearGradient id="paint5_linear" x1="83.192" y1="34.79" x2="2.18" y2="61.551" gradientUnits="userSpaceOnUse"><stop stop-color="#5F9BFE"/><stop offset="1" stop-color="#13266B"/></linearGradient><linearGradient id="paint6_linear" x1="83.192" y1="34.79" x2="2.18" y2="61.551" gradientUnits="userSpaceOnUse"><stop stop-color="#5F9BFE"/><stop offset="1" stop-color="#13266B"/></linearGradient><linearGradient id="paint7_linear" x1="83.192" y1="34.79" x2="2.18" y2="61.551" gradientUnits="userSpaceOnUse"><stop stop-color="#5F9BFE"/><stop offset="1" stop-color="#13266B"/></linearGradient><linearGradient id="paint8_linear" x1="83.192" y1="34.79" x2="2.18" y2="61.551" gradientUnits="userSpaceOnUse"><stop stop-color="#5F9BFE"/><stop offset="1" stop-color="#13266B"/></linearGradient><linearGradient id="paint9_linear" x1="83.192" y1="34.79" x2="2.18" y2="61.551" gradientUnits="userSpaceOnUse"><stop stop-color="#5F9BFE"/><stop offset="1" stop-color="#13266B"/></linearGradient><filter id="filter0_i" x="0" y="0" width="78" height="82" filterUnits="userSpaceOnUse" color-interpolation-filters="sRGB"><feFlood flood-opacity="0" result="BackgroundImageFix"/><feBlend in="SourceGraphic" in2="BackgroundImageFix" result="shape"/><feColorMatrix in="SourceAlpha" values="0 0 0 0 0 0 0 0 0 0 0 0 0 0 0 0 0 0 127 0" result="hardAlpha"/><feOffset dy="4"/><feGaussianBlur stdDeviation="2"/><feComposite in2="hardAlpha" operator="arithmetic" k2="-1" k3="1"/><feColorMatrix values="0 0 0 0 0.247059 0 0 0 0 0.517647 0 0 0 0 0.807843 0 0 0 0.6 0"/><feBlend in2="shape" result="effect1_innerShadow"/></filter></defs></svg>