<svg width="80" height="65" fill="none" xmlns="http://www.w3.org/2000/svg"><g filter="url(#filter0_i)"><path fill-rule="evenodd" clip-rule="evenodd" d="M42.288 0h5.792c4.978 0 9.013 4.03 9.013 9v5.462c0 4.97-4.035 9-9.013 9h-.444v5.208H76.72c.28 0 .55.046.802.13A2.502 2.502 0 0180 31.3v10.43c0 1.38-1.12 2.5-2.504 2.5a2.502 2.502 0 01-2.503-2.5v-8.06H47.636v6.994c0 .308-.056.603-.158.875h.785c4.977 0 9.012 4.03 9.012 9V56c0 4.97-4.035 9-9.012 9H42.47c-4.978 0-9.013-4.03-9.013-9v-5.462c0-4.97 4.035-9 9.013-9h.315a2.494 2.494 0 01-.157-.875V33.67H15.097v7.872c4.843.155 8.72 4.123 8.72 8.996V56c0 4.97-4.035 9-9.012 9H9.013C4.035 65 0 60.97 0 56v-5.462c0-4.97 4.035-9 9.013-9h1.077V31.474a2.502 2.502 0 012.485-2.804H42.63v-5.208h-.34c-4.978 0-9.013-4.03-9.013-9V9c0-4.97 4.035-9 9.012-9zm-4.824 50.538c0-2.762 2.242-5 5.007-5h5.792a5.004 5.004 0 015.007 5V56c0 2.761-2.242 5-5.008 5h-5.791a5.004 5.004 0 01-5.007-5v-5.462zm-28.451-5a5.004 5.004 0 00-5.007 5V56c0 2.761 2.241 5 5.007 5h5.792a5.004 5.004 0 005.007-5v-5.462c0-2.762-2.242-5-5.007-5H9.013z" fill="url(#paint0_linear)" fill-opacity=".3"/></g><defs><linearGradient id="paint0_linear" x1="85.325" y1="28.991" x2="6.241" y2="61.144" gradientUnits="userSpaceOnUse"><stop stop-color="#5F9BFE"/><stop offset="1" stop-color="#13266B"/></linearGradient><filter id="filter0_i" x="0" y="0" width="80" height="69" filterUnits="userSpaceOnUse" color-interpolation-filters="sRGB"><feFlood flood-opacity="0" result="BackgroundImageFix"/><feBlend in="SourceGraphic" in2="BackgroundImageFix" result="shape"/><feColorMatrix in="SourceAlpha" values="0 0 0 0 0 0 0 0 0 0 0 0 0 0 0 0 0 0 127 0" result="hardAlpha"/><feOffset dy="4"/><feGaussianBlur stdDeviation="2"/><feComposite in2="hardAlpha" operator="arithmetic" k2="-1" k3="1"/><feColorMatrix values="0 0 0 0 0.247059 0 0 0 0 0.517647 0 0 0 0 0.807843 0 0 0 0.6 0"/><feBlend in2="shape" result="effect1_innerShadow"/></filter></defs></svg>